<svg width="14" height="24" viewBox="0 0 14 24" fill="none" xmlns="http://www.w3.org/2000/svg">
<path d="M0.552147 10.7346L11.0699 0.475439C11.3932 0.173248 11.8219 0.00326805 12.2687 0.000157663C12.7216 -0.0059311 13.1584 0.164469 13.4831 0.473884C13.8077 0.783299 13.9937 1.20639 14 1.65012L14 1.6733C13.9979 1.90118 13.9497 2.12639 13.8583 2.33596C13.767 2.54552 13.6342 2.7353 13.4676 2.89435L4.14087 12.002L13.4676 21.1057C13.8001 21.4296 13.991 21.8675 14 22.3268C14 22.5465 13.9558 22.7641 13.87 22.9671C13.7842 23.1701 13.6584 23.3545 13.4999 23.5099C13.3413 23.6653 13.153 23.7885 12.9459 23.8726C12.7387 23.9567 12.5166 23.9999 12.2924 23.9999L12.2687 23.9999C12.0492 24.0017 11.8315 23.9606 11.6284 23.879C11.4252 23.7974 11.2407 23.6769 11.0856 23.5247L0.552147 13.2655C0.376402 13.1034 0.236667 12.9076 0.14167 12.6901C0.0466734 12.4727 -0.00154234 12.2385 3.61191e-05 12.002C0.00220163 11.7655 0.0521004 11.5317 0.146856 11.3142C0.241613 11.0967 0.379353 10.8997 0.552147 10.7346Z" fill="white"/>
</svg>
