<svg width="30" height="28" viewBox="0 0 30 28" fill="none" xmlns="http://www.w3.org/2000/svg">
<path fill-rule="evenodd" clip-rule="evenodd" d="M1.875 0.875C0.838594 0.875 0 1.71359 0 2.75V6.5C0 10.6419 3.35812 14 7.5 14H9.01781C10.9645 17.3581 14.588 19.625 18.75 19.625C24.9628 19.625 30 14.5878 30 8.375V0.875H1.875ZM7.5 10.25C5.42906 10.25 3.75 8.57094 3.75 6.5V4.625H7.5V8.375C7.5 9.01578 7.56609 9.63828 7.66828 10.25H7.5Z" fill="#2345A7"/>
<path fill-rule="evenodd" clip-rule="evenodd" d="M28.125 23.375H9.375C8.33859 23.375 7.5 24.2136 7.5 25.25C7.5 26.2864 8.33859 27.125 9.375 27.125H28.125C29.1614 27.125 30 26.2864 30 25.25C30 24.2136 29.1614 23.375 28.125 23.375Z" fill="#2345A7"/>
</svg>
