<svg width="35" height="35" viewBox="0 0 35 35" fill="none" xmlns="http://www.w3.org/2000/svg">
<path d="M28.538 0C32.1132 0 34.9055 3.06974 34.5454 6.60433L32.4391 27.2789C32.1815 29.8069 30.3494 31.8996 27.8655 32.5029L19.0203 34.6515C18.0777 34.8805 17.0935 34.8803 16.1509 34.651L7.34422 32.5089C4.86089 31.9049 3.02957 29.8122 2.77236 27.2846L0.667951 6.6036C0.308311 3.06925 3.10049 0 6.67542 0H28.538Z" fill="#264DE4"/>
<path d="M25.1044 30.5008C27.5883 29.8974 29.4344 27.8013 29.692 25.2733L31.3316 9.18004C31.6917 5.64543 28.8994 2.5757 25.3242 2.5757H23.6452C20.3105 2.5757 17.6071 5.26199 17.6071 8.5757V24.6786C17.6071 28.569 21.3012 31.4246 25.1044 30.5008Z" fill="#2965F1"/>
<path d="M7.83455 13.8199L8.22976 17.6833H18.0973V13.8199H7.83455Z" fill="#EBEBEB"/>
<path d="M18.0973 6H18.082C13.77 6 11.3525 6 7.04045 6L7.44129 9.86355H18.0973V6Z" fill="#EBEBEB"/>
<path d="M18.0973 27.8734V23.8537L18.0779 23.8582L13.1671 22.6964L12.8532 19.6151H8.42677L9.04453 25.6813L18.077 27.8783L18.0973 27.8734Z" fill="#EBEBEB"/>
<path d="M23.5118 17.6833L23 22.694L18.082 23.857V27.8765L27.1217 25.6814L28.2242 14.8573L28.3318 13.8198L29.1278 6H18.082L18.082 9.86355H24.2954L23.8942 13.8198H18.082V17.6833H23.5118Z" fill="white"/>
</svg>
