<svg width="24" height="35" viewBox="0 0 24 35" fill="none" xmlns="http://www.w3.org/2000/svg">
<path d="M5.83333 35C9.05333 35 11.6667 32.3867 11.6667 29.1667V23.3334H5.83333C2.61333 23.3334 0 25.9467 0 29.1667C0 32.3867 2.61333 35 5.83333 35Z" fill="#0ACF83"/>
<path d="M0 17.5C0 14.28 2.61333 11.6666 5.83333 11.6666H11.6667V23.3334H5.83333C2.61333 23.3334 0 20.72 0 17.5Z" fill="#A259FF"/>
<path d="M0 5.83333C0 2.61333 2.61333 0 5.83333 0H11.6667V11.6666H5.83333C2.61333 11.6666 0 9.05333 0 5.83333Z" fill="#F24E1E"/>
<path d="M11.6667 0H17.5C20.72 0 23.3333 2.61333 23.3333 5.83333C23.3333 9.05333 20.72 11.6667 17.5 11.6667L11.6667 11.6666V0Z" fill="#FF7262"/>
<path d="M23.3333 17.5C23.3333 20.72 20.72 23.3333 17.5 23.3333C14.28 23.3333 11.6667 20.72 11.6667 17.5C11.6667 14.28 14.28 11.6667 17.5 11.6667C20.72 11.6667 23.3333 14.28 23.3333 17.5Z" fill="#1ABCFE"/>
</svg>
