<svg width="35" height="35" viewBox="0 0 35 35" fill="none" xmlns="http://www.w3.org/2000/svg">
<path d="M17.5001 0C7.83629 0 0 8.03322 0 17.943C0 25.8708 5.01429 32.5966 11.9677 34.9692C12.8422 35.1352 13.1634 34.5799 13.1634 34.106C13.1634 33.6782 13.147 32.2646 13.1396 30.7653C8.27096 31.8507 7.24365 28.6483 7.24365 28.6483C6.4476 26.5743 5.3006 26.0229 5.3006 26.0229C3.71289 24.9093 5.42028 24.9321 5.42028 24.9321C7.17763 25.0587 8.10297 26.7812 8.10297 26.7812C9.66378 29.5243 12.1969 28.7312 13.1955 28.2728C13.3525 27.113 13.8061 26.3216 14.3065 25.8735C10.4196 25.4197 6.3334 23.8811 6.3334 17.0059C6.3334 15.047 7.01705 13.4463 8.13659 12.1898C7.95488 11.7378 7.35592 9.91287 8.3061 7.44134C8.3061 7.44134 9.77564 6.95908 13.1199 9.2806C14.5157 8.88291 16.0128 8.68365 17.5001 8.67689C18.9873 8.68365 20.4855 8.88291 21.8841 9.2806C25.2244 6.95908 26.6918 7.44134 26.6918 7.44134C27.6444 9.91287 27.0451 11.7378 26.8634 12.1898C27.9854 13.4463 28.6644 15.0469 28.6644 17.0059C28.6644 23.8974 24.5705 25.415 20.6737 25.8591C21.3013 26.416 21.8606 27.508 21.8606 29.1819C21.8606 31.5827 21.8403 33.5149 21.8403 34.106C21.8403 34.5835 22.1553 35.143 23.0425 34.9668C29.992 32.5915 35 25.8681 35 17.943C35 8.03322 27.1648 0 17.5001 0Z" fill="white"/>
<path d="M6.55434 25.5602C6.51591 25.6493 6.37894 25.6761 6.25445 25.615C6.12749 25.5564 6.05612 25.4349 6.0973 25.3454C6.13504 25.2536 6.27202 25.228 6.3987 25.2896C6.52593 25.348 6.5984 25.4707 6.55434 25.5602ZM7.41518 26.3477C7.33173 26.4271 7.16854 26.3902 7.05778 26.2649C6.94331 26.1397 6.9219 25.9726 7.00658 25.8919C7.09264 25.8127 7.25089 25.8497 7.36563 25.975C7.4801 26.1015 7.50247 26.2675 7.41518 26.3477ZM8.00576 27.3553C7.89843 27.4317 7.72303 27.3601 7.61474 27.2005C7.50754 27.0411 7.50755 26.8497 7.61707 26.773C7.72577 26.6963 7.89843 26.7653 8.00823 26.9236C8.11529 27.0858 8.11543 27.2771 8.00576 27.3553ZM9.0044 28.5223C8.90846 28.6307 8.70423 28.6017 8.55463 28.4537C8.40173 28.309 8.35905 28.1037 8.45526 27.9952C8.55229 27.8866 8.75776 27.9171 8.90846 28.0639C9.06039 28.2083 9.10665 28.4151 9.0044 28.5223ZM10.2951 28.9164C10.253 29.0568 10.0561 29.1207 9.85796 29.061C9.66004 28.9995 9.53048 28.8349 9.57042 28.6929C9.61159 28.5515 9.80923 28.4849 10.0089 28.5488C10.2066 28.61 10.3363 28.7734 10.2951 28.9164ZM11.7642 29.0834C11.7692 29.2315 11.601 29.3542 11.393 29.3568C11.1837 29.3615 11.0144 29.2417 11.0122 29.0962C11.0122 28.9468 11.1765 28.8252 11.3857 28.8217C11.5938 28.8174 11.7642 28.9364 11.7642 29.0834ZM13.2073 29.0267C13.2323 29.1711 13.0876 29.3194 12.881 29.3588C12.6779 29.3968 12.4899 29.3077 12.4639 29.1646C12.4387 29.0166 12.5861 28.8684 12.7888 28.83C12.9958 28.7931 13.1809 28.8799 13.2073 29.0267Z" fill="white"/>
</svg>
