<svg width="35" height="35" viewBox="0 0 35 35" fill="none" xmlns="http://www.w3.org/2000/svg">
<path d="M34.3399 15.9408L19.0586 0.660056C18.1791 -0.220019 16.7517 -0.220019 15.8711 0.660056L12.6979 3.83336L16.7233 7.85884C17.6587 7.54274 18.7314 7.7548 19.4771 8.50048C20.2263 9.25094 20.4369 10.3328 20.1131 11.2713L23.9925 15.1509C24.9311 14.8275 26.014 15.0367 26.7637 15.7876C27.8113 16.8349 27.8113 18.5323 26.7637 19.5802C25.7157 20.6283 24.0183 20.6283 22.9698 19.5802C22.1818 18.7914 21.9871 17.634 22.3861 16.6631L18.7682 13.0452L18.7678 22.5661C19.0301 22.6958 19.2696 22.8671 19.4771 23.0733C20.5248 24.1206 20.5248 25.8181 19.4771 26.8669C18.4291 27.9145 16.731 27.9145 15.6845 26.8669C14.6368 25.8181 14.6368 24.1207 15.6845 23.0735C15.9356 22.8223 16.234 22.6233 16.5624 22.4882V12.8786C16.2335 12.7443 15.9349 12.5452 15.6845 12.2933C14.8907 11.5005 14.6999 10.3358 15.1066 9.36114L11.1385 5.39253L0.660352 15.8702C-0.220117 16.7511 -0.220117 18.1786 0.660352 19.0588L15.942 34.3398C16.8217 35.2201 18.2488 35.2201 19.1297 34.3398L34.3398 19.1297C35.22 18.2493 35.2201 16.8209 34.3399 15.9408Z" fill="#DE4C36"/>
</svg>
