<svg width="29" height="30" viewBox="0 0 29 30" fill="none" xmlns="http://www.w3.org/2000/svg">
<path d="M18.7559 14.8477C18.252 14.7598 17.7246 14.7715 17.209 14.8008C16.0371 14.8652 14.8652 14.9766 13.6934 14.8711C13.1367 14.8184 12.5742 14.7656 12.0117 14.7773C10.9922 14.7949 10.1367 15.1289 9.63281 16.1016C9.38086 16.582 9.32227 17.0977 9.33984 17.6309C9.38086 19.1309 10.0312 19.9863 11.4609 20.4141C12.6094 20.7539 13.7871 20.8008 14.9707 20.7773C15.4102 20.7773 15.8496 20.8008 16.2891 20.7715C17.1973 20.7188 18.0879 20.584 18.9492 20.2676C19.8398 19.9395 20.373 19.3125 20.5664 18.4043C20.6426 18.0527 20.6777 17.6836 20.6719 17.3262C20.6602 16.1133 19.8398 15.0293 18.7559 14.8477ZM12.9902 18.8145C12.6094 19.2305 12.0586 19.2363 11.666 18.832C11.3789 18.5391 11.2148 18.0879 11.2148 17.5254C11.2266 17.1445 11.3379 16.7285 11.666 16.3945C12.0586 15.9902 12.6094 15.9961 12.9902 16.4062C13.5645 17.0273 13.5645 18.1934 12.9902 18.8145ZM18.3164 18.8438C17.959 19.2129 17.4434 19.2246 17.0625 18.8848C16.4062 18.2871 16.4062 16.957 17.0625 16.3535C17.4375 16.0078 17.9531 16.0195 18.3164 16.3887C18.6504 16.7285 18.7617 17.1562 18.7793 17.6133C18.7617 18.0762 18.6445 18.498 18.3164 18.8438Z" fill="#2F81F7"/>
<path d="M27.6562 0H2.34375C1.04883 0 0 1.04883 0 2.34375V27.6562C0 28.9512 1.04883 30 2.34375 30H27.6562C28.9512 30 30 28.9512 30 27.6562V2.34375C30 1.04883 28.9512 0 27.6562 0ZM22.6875 16.3125C22.6055 16.9805 22.4648 17.666 22.2246 18.293C21.5215 20.0918 20.1152 21.082 18.252 21.3809C17.1855 21.5508 16.0898 21.5566 14.9062 21.6445C13.8457 21.5508 12.6797 21.5391 11.5488 21.3398C9.35742 20.9531 7.86914 19.418 7.43555 17.2207C7.21289 16.1016 7.14844 14.9766 7.49414 13.8633C7.67578 13.2891 7.97461 12.7793 8.36133 12.3164C8.41406 12.2578 8.46094 12.1699 8.45508 12.0938C8.39062 11.0859 8.50781 10.0898 8.80664 9.12891C9.05273 8.32617 8.87109 8.37305 9.76172 8.60742C10.834 8.88867 11.7715 9.46875 12.6914 10.0723C12.7969 10.1426 12.9609 10.1719 13.0898 10.1484C14.3906 9.94922 15.6855 9.9375 16.9863 10.166C17.0801 10.1836 17.2031 10.1484 17.291 10.0957C18.082 9.58008 18.8965 9.11719 19.7871 8.79492C20.1094 8.67773 20.4492 8.60156 20.7773 8.50195C20.9238 8.46094 20.9883 8.51367 21.041 8.6543C21.4395 9.76758 21.6035 10.9102 21.5449 12.0879C21.5391 12.1523 21.5742 12.2402 21.6152 12.293C22.6172 13.4531 22.8691 14.8359 22.6875 16.3125Z" fill="#2F81F7"/>
</svg>
