<svg width="50" height="44" viewBox="0 0 50 44" fill="none" xmlns="http://www.w3.org/2000/svg">
<path d="M25 0.333252L0 11.9999L6.66667 14.9999V20.6666C4.66667 21.3333 3.33333 23.3333 3.33333 25.3333C3.33333 27.3333 4.66667 29.3333 6.66667 29.9999V30.3333L3.66667 37.3333C2.66667 40.3333 3.33333 43.6666 8.33333 43.6666C13.3333 43.6666 14 40.3333 13 37.3333L10 30.3333C12 29.3333 13.3333 27.6666 13.3333 25.3333C13.3333 22.9999 12 21.3333 10 20.6666V16.6666L25 23.6666L50 11.9999L25 0.333252ZM39.6667 21.9999L24.6667 28.6666L16.6667 24.9999V25.3333C16.6667 27.6666 15.6667 29.6666 14 31.3333L16 35.9999V36.3333C16.3333 37.6666 16.6667 38.9999 16.3333 40.3333C18.6667 41.3333 21.3333 41.9999 24.6667 41.9999C35.6667 41.9999 39.6667 35.3333 39.6667 31.9999V21.9999Z" fill="#2345A7"/>
</svg>
