<svg width="13" height="15" viewBox="0 0 13 15" fill="none" xmlns="http://www.w3.org/2000/svg">
<path fill-rule="evenodd" clip-rule="evenodd" d="M1.8125 0C1.29474 0 0.875 0.419733 0.875 0.9375C0.875 1.45526 1.29474 1.875 1.8125 1.875V2.97335C1.8125 3.71927 2.10882 4.43464 2.63626 4.96208L5.17418 7.5L2.63626 10.0379C2.10882 10.5653 1.8125 11.2807 1.8125 12.0266V13.125C1.29474 13.125 0.875 13.5447 0.875 14.0625C0.875 14.5803 1.29474 15 1.8125 15H11.1875C11.7053 15 12.125 14.5803 12.125 14.0625C12.125 13.5447 11.7053 13.125 11.1875 13.125V12.0266C11.1875 11.2807 10.8912 10.5653 10.3637 10.0379L7.82582 7.5L10.3637 4.96208C10.8912 4.43464 11.1875 3.71927 11.1875 2.97335V1.875C11.7053 1.875 12.125 1.45526 12.125 0.9375C12.125 0.419733 11.7053 0 11.1875 0H1.8125ZM9.3125 1.875H3.6875V2.97335C3.6875 3.22199 3.78628 3.46044 3.96208 3.63626L4.07582 3.75H8.92419L9.03791 3.63626C9.21369 3.46044 9.3125 3.22199 9.3125 2.97335V1.875ZM6.5 8.82582L3.96208 11.3637C3.78628 11.5396 3.6875 11.778 3.6875 12.0266V13.125H9.3125V12.0266C9.3125 11.778 9.21369 11.5396 9.03791 11.3637L6.5 8.82582Z" fill="#2E364C"/>
</svg>
