<svg width="91" height="53" viewBox="0 0 91 53" fill="none" xmlns="http://www.w3.org/2000/svg">
<path d="M28.5438 44.8062L2.94398 33.9902C0.981328 33.1795 0 31.7716 0 29.7662C0 28.7849 0.234665 27.9742 0.703996 27.3342C1.21599 26.6516 1.96266 26.0969 2.94398 25.6703L28.5438 14.7903C29.2692 14.4917 29.9092 14.4277 30.4638 14.5983C31.0612 14.769 31.5305 15.089 31.8718 15.5583C32.2132 16.0276 32.4052 16.561 32.4478 17.1583C32.4905 17.7556 32.3625 18.3316 32.0638 18.8863C31.8078 19.3983 31.3172 19.8036 30.5918 20.1023L2.68799 31.8142V27.8462L30.5918 39.5582C31.3172 39.8568 31.8078 40.2835 32.0638 40.8382C32.3625 41.3502 32.4905 41.9048 32.4478 42.5022C32.4052 43.0568 32.2132 43.5688 31.8718 44.0382C31.5305 44.5075 31.0612 44.8275 30.4638 44.9982C29.9092 45.1688 29.2692 45.1048 28.5438 44.8062Z" fill="#2F81F7"/>
<path d="M40.6788 50.0541C40.4228 50.8648 40.0174 51.4408 39.4628 51.7821C38.9081 52.1661 38.2895 52.3581 37.6068 52.3581C36.9668 52.3581 36.3695 52.1874 35.8148 51.8461C35.2601 51.5048 34.8761 51.0141 34.6628 50.3741C34.4068 49.7768 34.4068 49.0515 34.6628 48.1981L49.4467 2.31039C49.7027 1.49972 50.1081 0.902392 50.6627 0.518394C51.2601 0.134399 51.8787 -0.036266 52.5187 0.00639984C53.1587 0.00639984 53.756 0.177065 54.3107 0.518394C54.8654 0.859726 55.2494 1.32906 55.4627 1.92639C55.7187 2.52372 55.7187 3.24905 55.4627 4.10238L40.6788 50.0541Z" fill="#2F81F7"/>
<path d="M61.7012 44.8062C60.9758 45.1048 60.3145 45.1688 59.7172 44.9982C59.1625 44.8275 58.7145 44.5075 58.3732 44.0382C58.0318 43.5688 57.8399 43.0568 57.7972 42.5022C57.7545 41.9048 57.8825 41.3502 58.1812 40.8382C58.4798 40.2835 58.9705 39.8568 59.6532 39.5582L87.557 27.8462V31.8142L59.6532 20.1023C58.9705 19.8036 58.4798 19.3983 58.1812 18.8863C57.8825 18.3316 57.7545 17.7556 57.7972 17.1583C57.8399 16.561 58.0318 16.0276 58.3732 15.5583C58.7145 15.089 59.1625 14.769 59.7172 14.5983C60.3145 14.4277 60.9758 14.4917 61.7012 14.7903L87.301 25.6703C89.2637 26.4809 90.245 27.8462 90.245 29.7662C90.245 30.7476 89.989 31.6009 89.477 32.3262C89.0077 33.0089 88.2823 33.5635 87.301 33.9902L61.7012 44.8062Z" fill="#2F81F7"/>
</svg>
