<svg width="35" height="35" viewBox="0 0 35 35" fill="none" xmlns="http://www.w3.org/2000/svg">
<path d="M3.16998 31.3498L0.555838 5.47428C0.259827 2.54428 2.56002 0 5.50493 0H29.3203C32.2654 0 34.5656 2.54446 34.2694 5.47455L32.0091 27.8354C31.7972 29.9318 30.2875 31.6672 28.2407 32.1673L17.384 34.82" fill="#E44D26"/>
<path d="M17.4127 32.1542V7.54753C17.4127 4.80031 19.6397 2.57325 22.3869 2.57325H26.1408C29.0868 2.57325 31.3873 5.11923 31.0897 8.0501L28.9297 29.3188" fill="#F16529"/>
<path d="M5.97193 6.964H16.9132V10.8066H10.7515L11.1546 14.7422H16.9132V18.5763H7.16203L5.97193 6.964ZM7.35398 20.5061H11.7305L12.0376 23.5784L16.9132 24.7295V28.7413L7.96822 26.5407" fill="#EBEBEB"/>
<path d="M27.8158 6.964H16.8938V10.8066H27.4127L27.8158 6.964ZM27.0192 14.7422H16.8938V18.5848H22.2684L21.7597 23.5784L16.8938 24.7295V28.7244L25.8195 26.5407" fill="white"/>
</svg>
