<svg width="182" height="106" viewBox="0 0 182 106" fill="none" xmlns="http://www.w3.org/2000/svg">
<path d="M57.744 90.216L6.54401 68.584C2.61867 66.9627 0.656006 64.1467 0.656006 60.136C0.656006 58.1733 1.12534 56.552 2.06401 55.272C3.08801 53.9067 4.58134 52.7973 6.54401 51.944L57.744 30.184C59.1947 29.5867 60.4747 29.4587 61.584 29.8C62.7787 30.1413 63.7173 30.7813 64.4 31.72C65.0827 32.6587 65.4667 33.7253 65.552 34.92C65.6373 36.1147 65.3813 37.2667 64.784 38.376C64.272 39.4 63.2907 40.2107 61.84 40.808L6.03201 64.232V56.296L61.84 79.72C63.2907 80.3173 64.272 81.1707 64.784 82.28C65.3813 83.304 65.6373 84.4133 65.552 85.608C65.4667 86.7173 65.0827 87.7413 64.4 88.68C63.7173 89.6187 62.7787 90.2587 61.584 90.6C60.4747 90.9413 59.1947 90.8133 57.744 90.216Z" fill="#2F81F7"/>
<path d="M82.014 100.712C81.502 102.333 80.6913 103.485 79.582 104.168C78.4727 104.936 77.2353 105.32 75.87 105.32C74.59 105.32 73.3953 104.979 72.286 104.296C71.1767 103.613 70.4087 102.632 69.982 101.352C69.47 100.157 69.47 98.7067 69.982 97L99.55 5.22401C100.062 3.60267 100.873 2.408 101.982 1.64C103.177 0.872009 104.414 0.530678 105.694 0.61601C106.974 0.61601 108.169 0.957342 109.278 1.64C110.387 2.32267 111.155 3.26134 111.582 4.45601C112.094 5.65067 112.094 7.10134 111.582 8.80801L82.014 100.712Z" fill="#2F81F7"/>
<path d="M124.059 90.216C122.608 90.8133 121.286 90.9413 120.091 90.6C118.982 90.2587 118.086 89.6187 117.403 88.68C116.72 87.7413 116.336 86.7173 116.251 85.608C116.166 84.4133 116.422 83.304 117.019 82.28C117.616 81.1707 118.598 80.3173 119.963 79.72L175.771 56.296V64.232L119.963 40.808C118.598 40.2107 117.616 39.4 117.019 38.376C116.422 37.2667 116.166 36.1147 116.251 34.92C116.336 33.7253 116.72 32.6587 117.403 31.72C118.086 30.7813 118.982 30.1413 120.091 29.8C121.286 29.4587 122.608 29.5867 124.059 30.184L175.259 51.944C179.184 53.5653 181.147 56.296 181.147 60.136C181.147 62.0987 180.635 63.8053 179.611 65.256C178.672 66.6213 177.222 67.7307 175.259 68.584L124.059 90.216Z" fill="#2F81F7"/>
</svg>
