<svg width="35" height="35" viewBox="0 0 35 35" fill="none" xmlns="http://www.w3.org/2000/svg">
<path d="M35 6C35 2.68629 32.3137 0 29 0H6C2.68629 0 0 2.68629 0 6V29C0 32.3137 2.68629 35 6 35H29C32.3137 35 35 32.3137 35 29V6Z" fill="#F7DF1E"/>
<path d="M22.1516 28.1337C22.9075 27.6946 23.838 27.9881 24.5033 28.5552C25.0734 29.041 25.7895 29.3411 26.7555 29.3411C28.1183 29.3411 28.9889 28.66 28.9889 27.7189C28.9889 26.5911 28.0944 26.1917 26.5944 25.5356L25.7722 25.1828C23.3989 24.1717 21.8222 22.905 21.8222 20.2272C21.8222 17.7606 23.7017 15.8828 26.6389 15.8828C28.2364 15.8828 29.4909 16.3075 30.4771 17.3577C31.0275 17.9437 30.7868 18.8563 30.1103 19.2907V19.2907C29.3761 19.7621 28.4572 19.3964 27.6874 18.9856C27.3841 18.8237 27.0421 18.7511 26.6389 18.7511C25.6755 18.7511 25.065 19.3622 25.065 20.1606C25.065 21.1472 25.6761 21.5467 27.0872 22.1578L27.9094 22.51C30.7039 23.7083 32.2817 24.93 32.2817 27.6767C32.2817 30.6378 29.9555 32.26 26.8317 32.26C24.4941 32.26 22.7897 31.4075 21.6857 30.1522C21.1225 29.512 21.4143 28.562 22.1516 28.1337V28.1337ZM10.4644 28.4937C11.246 28.0205 12.1596 28.4017 12.884 28.9585C13.1778 29.1843 13.5356 29.3206 14.0094 29.3206C15.09 29.3206 15.7717 28.8978 15.7717 27.2539V17.715C15.7717 16.8068 16.5079 16.0706 17.4161 16.0706V16.0706C18.3243 16.0706 19.0605 16.8068 19.0605 17.715V27.2983C19.0605 30.7039 17.0639 32.2539 14.1494 32.2539C12.2149 32.2539 10.8785 31.5184 9.99799 30.4773C9.46234 29.844 9.75483 28.9232 10.4644 28.4937V28.4937Z" fill="black"/>
</svg>
