<svg width="50" height="50" viewBox="0 0 50 50" fill="none" xmlns="http://www.w3.org/2000/svg">
<path fill-rule="evenodd" clip-rule="evenodd" d="M33.2367 10.9864C34.6491 11.7555 35.9214 12.7264 37.0068 13.8631C38.0769 14.979 38.9355 16.2542 39.5465 17.6351C39.8891 18.4172 40.161 19.2243 40.3594 20.048C40.8086 21.921 40.8445 23.8586 40.4649 25.7447C40.2557 26.7615 39.9378 27.7565 39.5158 28.715L39.4674 28.8168C38.5886 30.8513 37.0156 32.8207 35.5128 34.7657C34.7482 35.7504 33.9881 36.7229 33.3509 37.6669C33.1504 37.9605 32.8674 38.1982 32.5323 38.3545C32.1972 38.5107 31.8225 38.5796 31.4483 38.5539L19.3558 40.2181C18.8571 40.2853 18.3491 40.1814 17.9275 39.9258C17.5058 39.6702 17.1996 39.2807 17.0665 38.8306C16.7659 38.0172 16.3941 37.2279 15.9548 36.4706C15.5901 35.8194 15.1479 35.208 14.6366 34.6477C14.0127 33.9885 13.3755 33.313 12.7428 32.5521C12.0369 31.6718 11.4275 30.7286 10.9236 29.7364C10.3937 28.6934 9.98145 27.6025 9.69331 26.4811C9.40732 25.3586 9.26719 24.2084 9.27587 23.055C9.2886 21.8559 9.46128 20.6628 9.78998 19.5028C10.141 18.2578 10.6437 17.0538 11.2884 15.9139L11.3762 15.7674C12.2071 14.4455 13.262 13.2558 14.5004 12.2437C15.7304 11.2482 17.1307 10.4493 18.644 9.87959L18.7714 9.83483C19.9022 9.41867 21.0821 9.12775 22.2867 8.96813C23.5605 8.80253 24.8508 8.77522 26.1315 8.88675C27.3814 8.99205 28.6149 9.22541 29.8093 9.58255C31.0053 9.92922 32.1551 10.4002 33.2367 10.9864ZM31.5318 46.5292C30.8692 47.5871 29.9214 48.4676 28.7811 49.0845C27.8169 49.6046 26.7353 49.9097 25.6218 49.9756C24.503 50.0417 23.3847 49.8399 22.3746 49.3897C21.6512 49.0597 20.9989 48.6102 20.45 48.0632L31.5318 46.5292ZM32.5864 40.7878V41.4592V41.6911C32.6193 42.1314 32.6193 42.5733 32.5864 43.0135L32.3667 43.982L18.9384 45.8293L18.7055 45.3329L18.1826 43.3472V42.7694L32.5512 40.7878H32.5864ZM24.677 1.51777C24.6897 1.1062 24.8773 0.715889 25.199 0.431685C25.5207 0.147481 25.9506 -0.00764505 26.3951 2.7503e-05H26.5094C26.9226 0.0341091 27.3084 0.206211 27.5947 0.48424C27.8972 0.779436 28.0642 1.17185 28.0605 1.5788C28.0628 1.60589 28.0628 1.6331 28.0605 1.66018L27.9682 4.9927C27.9704 5.02794 27.9704 5.06326 27.9682 5.0985C27.9358 5.49241 27.7422 5.86001 27.427 6.12621C27.1117 6.3924 26.6987 6.53712 26.2721 6.53079H26.1535C25.7417 6.5024 25.3562 6.33262 25.0725 6.05472C24.7681 5.75898 24.6009 5.3646 24.6067 4.95608C24.6044 4.929 24.6044 4.90179 24.6067 4.8747L24.6946 1.52998L24.677 1.51777ZM6.1517 7.36494C5.82703 7.08127 5.6347 6.69148 5.61562 6.27851C5.60561 6.07282 5.63972 5.86733 5.71597 5.67392C5.79222 5.4805 5.9091 5.303 6.05987 5.15166C6.21063 5.00032 6.39228 4.87814 6.59433 4.79219C6.79638 4.70624 7.01482 4.65822 7.23703 4.65091C7.68202 4.63354 8.11639 4.77981 8.44539 5.05781L11.1433 7.38935C11.4699 7.6713 11.6628 8.06134 11.6801 8.47445C11.6974 8.88757 11.5376 9.29026 11.2356 9.59475C10.9279 9.89601 10.5054 10.0741 10.058 10.0912C9.61437 10.1083 9.18145 9.96203 8.85404 9.68427L6.1517 7.36494ZM1.75764 24.5443C1.53487 24.5519 1.31266 24.5188 1.10372 24.4468C0.894783 24.3749 0.703217 24.2654 0.539976 24.1249C0.376735 23.9843 0.245023 23.8153 0.152372 23.6275C0.0597201 23.4398 0.00794726 23.2369 1.37881e-05 23.0306C-0.0107269 22.8264 0.0226004 22.6223 0.0980473 22.4302C0.173494 22.238 0.289547 22.0618 0.43942 21.9116C0.591071 21.7622 0.773244 21.642 0.975385 21.5582C1.17753 21.4744 1.39562 21.4286 1.61703 21.4234L5.29925 21.3094C5.52209 21.3002 5.74469 21.332 5.95412 21.4031C6.16354 21.4743 6.35561 21.5832 6.51916 21.7237C6.68271 21.8641 6.81446 22.0333 6.90678 22.2214C6.99909 22.4094 7.05011 22.6126 7.05687 22.819V22.8435V22.9004C7.0523 23.2844 6.89598 23.6535 6.61747 23.938C6.46264 24.0872 6.27713 24.2062 6.07186 24.288C5.86659 24.3697 5.64573 24.4126 5.42228 24.4141H5.35637L1.71809 24.528L1.75764 24.5443ZM48.1589 19.7062H48.216C48.6372 19.6827 49.0527 19.8061 49.3804 20.0521C49.7259 20.3158 49.9467 20.6939 49.9956 21.106C49.9956 21.106 49.9956 21.1467 49.9956 21.1548C50.0159 21.5536 49.8705 21.9444 49.5895 22.2471C49.3084 22.5497 48.9128 22.7413 48.4841 22.7824L44.8194 23.1934C44.3749 23.2355 43.9306 23.1127 43.5838 22.8518C43.237 22.5909 43.0161 22.2133 42.9695 21.8018C42.9241 21.3895 43.0573 20.9775 43.34 20.6562C43.6226 20.335 44.0315 20.1308 44.4767 20.0887C45.6982 19.9667 46.9286 19.8365 48.1545 19.7266L48.1589 19.7062ZM40.8999 6.12389C41.0221 5.95322 41.1797 5.80667 41.3634 5.6927C41.5471 5.57873 41.7534 5.4996 41.9704 5.45987C42.1873 5.42015 42.4106 5.42062 42.6273 5.46126C42.8441 5.5019 43.05 5.5819 43.2332 5.69664C43.4164 5.81035 43.5733 5.95671 43.6947 6.12717C43.8162 6.29763 43.8998 6.48879 43.9406 6.68948C44.0261 7.09541 43.9362 7.51619 43.6901 7.86136L41.6381 10.7097C41.3864 11.0528 40.9978 11.2894 40.5577 11.3672C40.1177 11.445 39.6623 11.3578 39.2917 11.1247C38.9211 10.8916 38.6657 10.5317 38.5816 10.1242C38.4976 9.71674 38.5918 9.29503 38.8435 8.95185L40.8999 6.10354V6.12389ZM26.918 22.343H29.5061C29.595 22.343 29.683 22.3592 29.7651 22.3907C29.8472 22.4222 29.9218 22.4683 29.9846 22.5265C30.0474 22.5847 30.0973 22.6538 30.1313 22.7298C30.1653 22.8058 30.1828 22.8873 30.1828 22.9696C30.1826 23.0941 30.1429 23.2158 30.0686 23.3195L23.9169 33.0567C23.8713 33.1272 23.811 33.1887 23.7396 33.2375C23.6683 33.2864 23.5871 33.3217 23.5009 33.3414C23.4147 33.361 23.3252 33.3647 23.2374 33.3522C23.1497 33.3396 23.0655 33.3111 22.9897 33.2683C22.8697 33.2013 22.7749 33.1016 22.7183 32.9829C22.6617 32.8642 22.646 32.7323 22.6734 32.605L23.5829 26.6317L20.5071 26.6805C20.4184 26.6821 20.3303 26.6675 20.2478 26.6375C20.1653 26.6074 20.09 26.5625 20.0263 26.5054C19.9626 26.4483 19.9117 26.3801 19.8765 26.3047C19.8414 26.2293 19.8228 26.1482 19.8216 26.0661C19.8177 25.9503 19.8498 25.836 19.9139 25.7365L25.9733 16.0034C26.0656 15.8613 26.2146 15.7585 26.3882 15.7174C26.5617 15.6762 26.7457 15.7001 26.9004 15.7837C27.0195 15.8437 27.116 15.9357 27.1772 16.0476C27.2384 16.1595 27.2614 16.286 27.2432 16.4103L26.9356 22.343H26.918Z" fill="#2345A7"/>
</svg>
