<svg width="30" height="30" viewBox="0 0 30 30" fill="none" xmlns="http://www.w3.org/2000/svg">
<path d="M27.7804 0H2.21359C2.20559 0 2.19659 0 2.18658 0C0.987263 0 0.0140037 0.964257 0 2.15958V27.8384C0.0140037 29.0347 0.987263 30 2.18658 30C2.19659 30 2.20559 30 2.21559 30H27.7774C27.7854 30 27.7954 30 27.8054 30C29.0057 30 29.981 29.0367 30 27.8404V27.8384V2.16158C29.981 0.964257 29.0057 0 27.8044 0C27.7944 0 27.7854 0 27.7754 0H27.7804ZM8.89737 25.5648H4.44218V11.25H8.89737V25.5648ZM6.67078 9.29148C5.2454 9.29148 4.09109 8.13617 4.09109 6.71179C4.09109 5.28741 5.2464 4.1321 6.67078 4.1321C8.09516 4.1321 9.25047 5.28641 9.25047 6.71079C9.25047 6.71179 9.25047 6.71279 9.25047 6.71479C9.25047 8.13817 8.09616 9.29248 6.67278 9.29248C6.67178 9.29248 6.67078 9.29248 6.66978 9.29248L6.67078 9.29148ZM25.5578 25.5648H21.1156V18.604C21.1156 16.9435 21.0816 14.8079 18.801 14.8079C16.4844 14.8079 16.1313 16.6144 16.1313 18.4819V25.5658H11.6891V11.251H15.9563V13.2025H16.0143C16.8425 11.8071 18.3409 10.8869 20.0543 10.8869C20.1154 10.8869 20.1754 10.8879 20.2354 10.8899H20.2264C24.7276 10.8899 25.5598 13.8527 25.5598 17.7087V25.5658L25.5578 25.5648Z" fill="#2F81F7"/>
</svg>
