<svg width="40" height="35" viewBox="0 0 40 35" fill="none" xmlns="http://www.w3.org/2000/svg">
<path d="M20.576 26.56H10.784L6.79999 34H0.175995L18.848 0.159998H23.456L27.824 34H21.536L20.576 26.56ZM13.52 21.28H20.336L19.568 13.792L19.616 8.512H19.376L17.456 13.84L13.52 21.28Z" fill="#F3F6FF"/>
<path d="M31.5215 30.832C31.5215 29.712 31.8735 28.832 32.5775 28.192C33.2815 27.52 34.2095 27.184 35.3615 27.184C36.5455 27.184 37.4895 27.52 38.1935 28.192C38.8975 28.832 39.2495 29.712 39.2495 30.832C39.2495 31.952 38.8975 32.848 38.1935 33.52C37.4895 34.192 36.5455 34.528 35.3615 34.528C34.2095 34.528 33.2815 34.192 32.5775 33.52C31.8735 32.848 31.5215 31.952 31.5215 30.832Z" fill="#2F81F7"/>
</svg>
