<svg width="15" height="15" viewBox="0 0 15 15" fill="none" xmlns="http://www.w3.org/2000/svg">
<path d="M14.0625 0H0.9375C0.419297 0 0 0.419297 0 0.9375V14.0625C0 14.5807 0.419297 15 0.9375 15H14.0625C14.5807 15 15 14.5807 15 14.0625V0.9375C15 0.419297 14.5807 0 14.0625 0ZM13.125 7.5H10.3125C9.7943 7.5 9.375 7.9193 9.375 8.4375V9.375H5.625V8.4375C5.625 7.9193 5.2057 7.5 4.6875 7.5H1.875V1.875H13.125V7.5Z" fill="white"/>
<path d="M4.6875 5.625H10.3125C10.8307 5.625 11.25 5.2057 11.25 4.6875C11.25 4.1693 10.8307 3.75 10.3125 3.75H4.6875C4.1693 3.75 3.75 4.1693 3.75 4.6875C3.75 5.2057 4.1693 5.625 4.6875 5.625Z" fill="white"/>
</svg>
