<svg width="29" height="30" viewBox="0 0 29 30" fill="none" xmlns="http://www.w3.org/2000/svg">
<path d="M28.125 0H1.875C0.838594 0 0 0.838594 0 1.875V28.125C0 29.1614 0.838594 30 1.875 30H28.125C29.1614 30 30 29.1614 30 28.125V1.875C30 0.838594 29.1614 0 28.125 0ZM26.25 15H20.625C19.5886 15 18.75 15.8386 18.75 16.875V18.75H11.25V16.875C11.25 15.8386 10.4114 15 9.375 15H3.75V3.75H26.25V15Z" fill="#2F81F7"/>
<path d="M9.375 11.25H20.625C21.6614 11.25 22.5 10.4114 22.5 9.375C22.5 8.33859 21.6614 7.5 20.625 7.5H9.375C8.33859 7.5 7.5 8.33859 7.5 9.375C7.5 10.4114 8.33859 11.25 9.375 11.25Z" fill="#2F81F7"/>
</svg>
