<svg width="20" height="30" viewBox="0 0 20 30" fill="none" xmlns="http://www.w3.org/2000/svg">
<path d="M10 18.75C15.1777 18.75 19.375 14.5527 19.375 9.375C19.375 4.19733 15.1777 0 10 0C4.82233 0 0.625 4.19733 0.625 9.375C0.625 14.5527 4.82233 18.75 10 18.75Z" fill="#2345A7"/>
<path d="M2.5 20.1375V28.1245C2.5 28.8169 2.88063 29.452 3.49047 29.7778C4.09844 30.1055 4.84 30.067 5.41469 29.6845L10 26.6287L14.5844 29.685C14.8975 29.8936 15.2598 30 15.6245 30C15.9283 30 16.2325 29.9269 16.5091 29.7783C17.1189 29.4525 17.4995 28.8169 17.4995 28.125V20.1375C15.3719 21.6225 12.7905 22.4995 10 22.4995C7.20953 22.4995 4.62766 21.6225 2.5 20.1375Z" fill="#2345A7"/>
</svg>
