<svg width="30" height="33" viewBox="0 0 30 33" fill="none" xmlns="http://www.w3.org/2000/svg">
<path d="M28.1241 14.3541H24.3745C23.3381 14.3541 22.4995 15.2498 22.4995 16.3569C22.4995 17.4639 23.3381 18.3596 24.3745 18.3596H28.1241C29.1605 18.3596 29.9991 17.4639 29.9991 16.3569C29.9991 15.2498 29.1605 14.3541 28.1241 14.3541Z" fill="#2345A7"/>
<path d="M23.3016 10.0807L26.5495 8.07793C27.4467 7.52467 27.7542 6.29998 27.2344 5.34165C26.7178 4.38333 25.5717 4.05488 24.675 4.60814L21.4266 6.61091C20.5294 7.16417 20.2219 8.38886 20.7417 9.34668C21.2583 10.3055 22.4044 10.634 23.3016 10.0807Z" fill="#2345A7"/>
<path d="M26.5495 24.6353L23.3016 22.633C22.4044 22.0797 21.2602 22.4082 20.7417 23.366C20.2238 24.3243 20.5294 25.5485 21.4266 26.1023L24.675 28.1051C25.5717 28.6583 26.7178 28.3299 27.2363 27.3715C27.7547 26.4132 27.4467 25.189 26.5495 24.6353Z" fill="#2345A7"/>
<path d="M17.5922 0.488058C16.8928 0.175127 16.087 0.349367 15.5489 0.922157L8.59828 8.3459H1.875C0.838594 8.3459 0 9.24163 0 10.3487V22.3652C0 23.4718 0.838594 24.3675 1.875 24.3675H8.59828L15.5489 31.7917C15.908 32.1753 16.3875 32.3786 16.8745 32.3786C17.1164 32.3786 17.3597 32.3295 17.5922 32.2258C18.2934 31.9169 18.7495 31.1854 18.7495 30.3758V2.33761C18.7495 1.52799 18.2934 0.796985 17.5922 0.488058Z" fill="#2345A7"/>
</svg>
