<svg width="30" height="30" viewBox="0 0 30 30" fill="none" xmlns="http://www.w3.org/2000/svg">
<path d="M28.125 7.5C27.0886 7.5 26.25 8.33859 26.25 9.375C26.25 12.4805 23.7323 15 20.625 15C17.5177 15 15 12.4805 15 9.375C15 6.26953 17.5177 3.75 20.625 3.75C21.6614 3.75 22.5 2.91141 22.5 1.875C22.5 0.838594 21.6614 0 20.625 0C15.4467 0 11.25 4.19672 11.25 9.375C11.25 9.81797 11.3212 10.2394 11.3798 10.6659L1.64813 20.3981C-0.549375 22.5956 -0.549375 26.1586 1.64813 28.3523C3.84188 30.5498 7.40484 30.5498 9.60234 28.3523L19.3345 18.6202C19.7606 18.6787 20.182 18.75 20.625 18.75C25.8033 18.75 30 14.5533 30 9.375C30 8.33859 29.1614 7.5 28.125 7.5Z" fill="#2345A7"/>
</svg>
